<svg xmlns="http://www.w3.org/2000/svg" viewBox="0 0 410 404">
  <defs>
    <linearGradient id="a" x1="3.94%" x2="78.4%" y1="2.86%" y2="78.4%">
      <stop offset="0%" stop-color="#41d1ff"/>
      <stop offset="100%" stop-color="#bd34fe"/>
    </linearGradient>
    <linearGradient id="b" x1="6.6%" x2="43.8%" y1="0%" y2="46.9%">
      <stop offset="0%" stop-color="#ffea83"/>
      <stop offset="8.33%" stop-color="#ffdd35"/>
      <stop offset="100%" stop-color="#ffa800"/>
    </linearGradient>
  </defs>
  <path fill="url(#a)" d="m399.1 59.5-183 327.7a21.3 21.3 0 0 1-36.9-.4L10.9 59.3a21.3 21.3 0 0 1 22-31.5l173.5 32.3a21.3 21.3 0 0 0 7.6 0l162.9-30.2a21.3 21.3 0 0 1 22.1 29.6Z"/>
  <path fill="url(#b)" d="m292.1 1.3-138 25.5a10.6 10.6 0 0 0-8.7 9.2l-12.6 141.7a10.6 10.6 0 0 0 13.1 11.3l38.6-10.5c7.3-2 14 4.4 12.5 11.8l-11.4 56.6c-1.6 7.7 5.8 14.5 13.3 11.7l23.8-9a10.6 10.6 0 0 1 14.2 11.5l-18 87.5c-1.8 8.7 10.4 13.6 15.4 6.1l2-3 112-198.2c3.8-6.8-2.2-14.9-9.8-13.4l-39.6 7.8c-7.4 1.5-13.7-5.7-11.7-13l25.8-94.5c2-7.5-4.3-14.7-11.8-13.2l-41 8c-7.4 1.5-13.7-5.7-11.7-13l16.5-60.4c2-7.5-4.3-14.7-11.8-13.2Z"/>
</svg>
